# xmcd CD database file
#
# Track frame offsets:
#	150
#	17401
#	41496
#	64310
#	79262
#	104312
#	125013
#	160355
#	186436
#	200883
#
# Disc length: 3053 seconds
#
# Revision: 0
# Processed by: cddbd v1.5.2PL0 Copyright (c) Steve Scherf et al.
# Submitted via: CDex 1.51
#
DISCID=8e0beb0a
DTITLE=Die Resonanz - Stanonczi - Live at Jazzit 22.04.2006
DYEAR=2006
DGENRE=Jazz
TTITLE0=Stanonczi
TTITLE1=Andersso
TTITLE2=Ge-Zeiten
TTITLE3=First Step
TTITLE4=Leila Palma
TTITLE5=Ostsee1
TTITLE6=Marjan
TTITLE7=Leben
TTITLE8=La Borduna
TTITLE9=Der Groove der die Seele nährt (Bonus Track)
EXTD=YEAR: 2006
EXTT0=
EXTT1=
EXTT2=
EXTT3=
EXTT4=
EXTT5=
EXTT6=
EXTT7=
EXTT8=
EXTT9=
PLAYORDER=
